<?xml version="1.0" standalone="no"?>
<!DOCTYPE svg PUBLIC "-//W3C//DTD SVG 20010904//EN"
 "http://www.w3.org/TR/2001/REC-SVG-20010904/DTD/svg10.dtd">
<svg version="1.0" xmlns="http://www.w3.org/2000/svg"
 width="512.000000pt" height="512.000000pt" viewBox="0 0 512.000000 512.000000"
 preserveAspectRatio="xMidYMid meet">

<g transform="translate(0.000000,512.000000) scale(0.100000,-0.100000)"
fill="#000000" stroke="none">
<path d="M552 5099 c-251 -37 -458 -226 -523 -477 -18 -73 -19 -130 -19 -2066
0 -2206 -4 -2060 67 -2205 52 -106 178 -232 284 -284 145 -71 -1 -67 2205 -67
1949 0 1992 0 2068 20 156 40 285 131 374 265 58 85 88 167 102 280 7 54 10
713 8 2045 -3 1863 -4 1968 -22 2025 -64 213 -238 387 -451 451 -57 18 -161
19 -2045 20 -1154 1 -2011 -2 -2048 -7z m2458 -920 c60 -27 98 -64 126 -124
21 -44 24 -65 24 -167 l0 -118 -44 0 -44 0 -4 119 c-3 129 -11 150 -72 195
-26 20 -41 21 -421 24 -378 3 -396 2 -434 -17 -67 -35 -85 -78 -90 -208 l-3
-113 -45 0 -45 0 4 123 c3 112 6 126 32 175 32 57 79 98 135 118 27 10 136 13
436 13 381 1 402 0 445 -20z m1378 -509 c41 -18 42 -21 30 -43 -7 -13 -150
-259 -318 -546 -336 -576 -358 -606 -489 -675 -113 -59 -160 -66 -478 -66
l-283 0 0 69 c0 46 -5 72 -14 80 -9 8 -92 11 -282 9 l-269 -3 -3 -77 -3 -78
-287 0 c-317 0 -355 5 -471 62 -42 20 -88 54 -130 98 -58 58 -103 130 -379
603 -172 295 -310 542 -306 548 24 39 0 38 1854 38 1749 1 1786 0 1828 -19z
m-3427 -632 c337 -577 364 -615 504 -693 129 -72 161 -78 508 -83 l307 -4 0
-71 0 -72 132 -112 c73 -62 141 -113 151 -113 11 0 79 52 153 115 l134 116 0
69 0 68 308 4 307 3 85 31 c47 17 111 47 142 68 117 77 155 131 448 634 151
260 289 493 305 519 l30 48 3 -1268 c2 -1422 8 -1313 -71 -1365 l-41 -27
-1780 -3 c-1216 -2 -1792 0 -1817 8 -51 14 -88 47 -110 94 -18 39 -19 96 -19
1299 0 700 4 1257 9 1257 4 0 145 -235 312 -522z m1809 -747 l0 -139 -100 -87
c-55 -47 -105 -85 -110 -83 -4 2 -51 39 -104 83 l-95 80 0 143 -1 142 205 0
205 0 0 -139z"/>
</g>
</svg>
